<svg width="49" height="56" viewBox="0 0 49 56" fill="none" xmlns="http://www.w3.org/2000/svg">
<path d="M48.111 30.5153C48.111 43.4512 38.8637 53.9823 27.1662 55.0603C27.1662 55.0603 12.0701 55.4749 7.09074 54.9774C5.19385 54.7286 3.61311 53.4848 2.90177 51.6605C3.61311 51.9922 4.32444 52.241 5.11481 52.3239C6.77459 52.4897 9.54089 52.5726 13.4137 52.5726C19.1044 52.5726 25.3483 52.4068 25.3483 52.4068H25.4273C31.6713 51.8263 37.441 48.8411 41.5509 43.9487C45.1076 39.8026 47.3997 34.5785 48.032 29.1056C48.111 29.5202 48.111 30.0177 48.111 30.5153Z" fill="black"/>
<path d="M46.2859 25.2093C46.2859 38.1452 37.0385 48.6763 25.262 49.6714C25.262 49.6714 10.1659 50.086 5.18656 49.5885C2.4993 49.3397 0.523373 46.6862 0.444336 43.701L0.523373 6.38587C0.60241 3.40066 2.65737 0.747141 5.34464 0.498373C10.324 0.0837612 25.4201 0.581296 25.4201 0.581296C37.1176 1.65929 46.2859 12.2734 46.2859 25.2093Z" fill="black"/>
</svg>
