<svg width="844" height="83" viewBox="0 0 844 83" fill="none" xmlns="http://www.w3.org/2000/svg">
<path fill-rule="evenodd" clip-rule="evenodd" d="M0 0H844V62H843.487C834.521 62 826.543 56.3065 823.628 47.8267L822.372 44.1733C822.236 43.7775 822.089 43.3877 821.931 43.0043L812.527 15.1135C809.647 6.5736 801.64 0.823242 792.628 0.823242H93.4771C85.4182 0.823242 78.0701 5.43508 74.5661 12.6923L61.2652 40.2398C61.0442 40.6103 60.8337 40.9892 60.6343 41.3759L55.8657 50.6241C52.2634 57.6104 45.0612 62 37.2008 62H21C9.40202 62 0 71.402 0 83V0Z" fill="white"/>
</svg>
