<svg width="48" height="35" viewBox="0 0 48 35" fill="none" xmlns="http://www.w3.org/2000/svg">
<g clip-path="url(#clip0_1268_202)">
<path fill-rule="evenodd" clip-rule="evenodd" d="M311 -8H-119V919H311V-8ZM-101.963 56.3682C-107.802 63.3766 -111 72.2101 -111 81.3322V910C-111 912.761 -108.761 915 -106 915H298C300.761 915 303 912.761 303 910V48.2146C303 41.0349 297.18 35.2146 290 35.2146H50.5924C43.5328 35.2146 37.125 31.0878 34.2047 24.6605L27.7953 10.5541C24.875 4.12683 18.4672 0 11.4076 0H-46.5681C-51.9108 0 -56.9774 2.37341 -60.3973 6.47816L-101.963 56.3682Z" fill="white"/>
</g>
<defs>
<clipPath id="clip0_1268_202">
<rect width="48" height="35" fill="white"/>
</clipPath>
</defs>
</svg>
