<svg width="162" height="84" viewBox="0 0 162 84" fill="none" xmlns="http://www.w3.org/2000/svg">
<g clip-path="url(#clip0_1267_38)">
<path fill-rule="evenodd" clip-rule="evenodd" d="M422 -8H-8V919H422V-8ZM9.0367 56.3682C3.19763 63.3766 0 72.2101 0 81.3322V910C0 912.761 2.23857 915 4.99999 915H409C411.761 915 414 912.761 414 910V48.2146C414 41.0349 408.18 35.2146 401 35.2146H161.592C154.533 35.2146 148.125 31.0878 145.205 24.6605L138.795 10.5541C135.875 4.12683 129.467 0 122.408 0H64.4319C59.0892 0 54.0226 2.37341 50.6027 6.47816L9.0367 56.3682Z" fill="white"/>
</g>
<defs>
<clipPath id="clip0_1267_38">
<rect width="162" height="84" fill="white"/>
</clipPath>
</defs>
</svg>
