<svg width="596" height="348" viewBox="0 0 596 348" fill="none" xmlns="http://www.w3.org/2000/svg">
<path d="M163.849 127.356L206.175 107.909" stroke="#FF0000" stroke-width="6.86364"/>
<path d="M162.698 110.197L205.024 90.7503" stroke="#FF0000" stroke-width="6.86364"/>
<path d="M57.1417 207.671C37.6069 207.671 23.5033 203.734 14.8305 195.862C6.1999 187.989 1.69512 175.001 1.31621 156.897C1.10571 146.835 0.937311 136.331 0.811009 125.385C0.726808 114.397 0.705756 102.756 0.747857 90.4624C0.832058 78.1269 1.00046 64.9072 1.25306 50.8035C1.58987 32.2371 6.24199 19.2279 15.2094 11.7761C24.219 4.28219 38.1963 0.535217 57.1417 0.535217C76.3396 0.535217 90.1695 4.45059 98.6318 12.2813C107.136 20.1121 111.662 33.037 112.209 51.0561C112.293 53.119 112.336 55.3504 112.336 57.7501C112.336 60.1078 112.315 62.5075 112.272 64.9493C112.23 67.3912 112.188 69.7909 112.146 72.1486C112.104 74.5062 112.041 76.7375 111.957 78.8426H104.379C104.463 76.0639 104.526 73.0537 104.568 69.812C104.652 66.5702 104.694 63.3495 104.694 60.1499C104.736 56.9081 104.715 53.9611 104.631 51.3087C104.126 35.3104 100.19 23.859 92.8219 16.9545C85.4543 10.05 73.5609 6.59773 57.1417 6.59773C40.7645 6.59773 28.6817 9.92369 20.8931 16.5756C13.1044 23.1854 9.10485 34.6789 8.89435 51.0561C8.72595 63.8547 8.59963 76.3165 8.51543 88.4416C8.43123 100.524 8.41018 112.25 8.45228 123.617C8.53648 134.942 8.68385 145.951 8.89435 156.645C9.23116 173.232 13.2939 184.873 21.0825 191.567C28.9132 198.261 40.9329 201.608 57.1417 201.608C73.9819 201.608 86.1489 198.135 93.6429 191.188C101.137 184.242 105.136 172.727 105.642 156.645C105.768 152.729 105.831 148.182 105.831 143.004C105.831 137.826 105.768 133.279 105.642 129.363H113.22C113.346 133.405 113.409 137.994 113.409 143.13C113.409 148.267 113.346 152.856 113.22 156.897C112.715 175.001 108.126 187.989 99.4528 195.862C90.78 203.734 76.6764 207.671 57.1417 207.671ZM57.1417 195.546C42.8695 195.546 32.597 192.536 26.324 186.515C20.051 180.495 16.7672 170.538 16.4725 156.645C16.2199 144.141 16.0515 132.416 15.9673 121.47C15.8831 110.523 15.8831 99.4088 15.9673 88.1258C16.0515 76.8428 16.1988 64.4862 16.4093 51.0561C16.6198 37.1629 19.9037 27.2902 26.2609 21.4382C32.6602 15.5862 42.9537 12.6602 57.1417 12.6602C71.2033 12.6602 81.2653 15.7125 87.3278 21.8171C93.3903 27.9217 96.632 37.8365 97.053 51.5613C97.0951 53.2032 97.1162 54.9294 97.1162 56.7397C97.1583 58.55 97.1583 60.5288 97.1162 62.6759C97.0741 64.823 97.032 67.2228 96.9899 69.8751C96.9478 72.5275 96.8846 75.5166 96.8004 78.8426H89.2223C89.3486 74.0431 89.4329 70.0225 89.475 66.7807C89.5171 63.539 89.5381 60.7393 89.5381 58.3816C89.5802 56.024 89.5592 53.7927 89.475 51.6876C89.1802 40.4046 86.6541 32.0897 81.8968 26.7429C77.1394 21.3961 68.8878 18.7227 57.1417 18.7227C45.1851 18.7227 36.7229 21.3119 31.755 26.4903C26.7872 31.6266 24.219 39.8994 24.0506 51.3087C23.8822 64.7809 23.7349 76.9902 23.6086 87.9363C23.4823 98.8404 23.4401 109.702 23.4822 120.522C23.5243 131.3 23.7138 143.257 24.0506 156.392C24.3453 168.012 26.9977 176.432 32.0076 181.653C37.0176 186.873 45.3956 189.483 57.1417 189.483C67.751 189.483 75.8132 187.084 81.3284 182.284C86.8857 177.443 89.938 168.728 90.4853 156.14C90.5695 154.203 90.6327 151.572 90.6748 148.246C90.7169 144.878 90.7169 141.467 90.6748 138.015C90.6748 134.521 90.6116 131.637 90.4853 129.363H98.0634C98.1476 131.469 98.1897 134.121 98.1897 137.321C98.2318 140.52 98.2529 143.825 98.2529 147.235C98.2529 150.603 98.1897 153.656 98.0634 156.392C97.5161 170.37 94.0639 180.39 87.7067 186.452C81.3495 192.515 71.1612 195.546 57.1417 195.546ZM57.1417 183.421C48.2584 183.421 41.8382 181.295 37.8807 177.043C33.9653 172.79 31.9024 165.907 31.6919 156.392C31.3972 144.225 31.2077 132.668 31.1235 121.722C31.0393 110.734 31.0393 99.5562 31.1235 88.1889C31.2077 76.8217 31.3761 64.5283 31.6287 51.3087C31.8392 42.0044 33.8601 35.2683 37.6913 31.1004C41.5224 26.8903 48.0058 24.7852 57.1417 24.7852C65.6039 24.7852 71.7716 26.8903 75.6449 31.1004C79.5181 35.2683 81.6021 42.2571 81.8968 52.0665C81.981 54.5084 82.002 57.3081 81.9599 60.4656C81.9599 63.5811 81.9178 66.7597 81.8336 70.0014C81.7915 73.2011 81.7284 76.1481 81.6442 78.8426H74.0661C74.1924 75.5166 74.2766 72.2749 74.3187 69.1173C74.3608 65.9598 74.3819 62.9496 74.3819 60.0867C74.424 57.2239 74.4029 54.5505 74.3187 52.0665C74.1503 44.6147 72.761 39.2258 70.1507 35.8998C67.5405 32.5318 63.2042 30.8477 57.1417 30.8477C50.9107 30.8477 46.4061 32.4476 43.6274 35.6472C40.8909 38.8469 39.4174 44.1516 39.2069 51.5613C38.8701 64.1073 38.6385 76.0008 38.5122 87.2417C38.428 98.4405 38.428 109.639 38.5122 120.838C38.6385 131.995 38.8701 143.762 39.2069 156.14C39.4174 163.718 40.8909 169.149 43.6274 172.433C46.4061 175.716 50.9107 177.358 57.1417 177.358C63.7936 177.358 68.4456 175.611 71.098 172.117C73.7503 168.58 75.1607 163.17 75.3291 155.887C75.4554 152.098 75.5185 147.656 75.5185 142.562C75.5185 137.426 75.4554 133.026 75.3291 129.363H82.9072C83.0335 133.026 83.0966 137.447 83.0966 142.625C83.0966 147.804 83.0335 152.224 82.9072 155.887C82.6125 165.528 80.5075 172.538 76.5921 176.916C72.6767 181.253 66.1933 183.421 57.1417 183.421Z" fill="white"/>
<path d="M185.174 207.671C168.039 207.671 154.546 203.398 144.695 194.851C134.885 186.263 129.77 173.611 129.349 156.897C129.054 145.446 128.865 133.973 128.78 122.48C128.696 110.944 128.696 99.2615 128.78 87.4311C128.907 75.6008 129.096 63.4758 129.349 51.0561C129.728 34.8052 134.738 22.3223 144.379 13.6075C154.02 4.89264 167.618 0.535217 185.174 0.535217C202.562 0.535217 216.034 4.89264 225.591 13.6075C235.19 22.3223 240.242 34.8052 240.747 51.0561C241.126 63.0969 241.378 75.264 241.505 87.5574C241.631 99.8088 241.631 111.807 241.505 123.554C241.42 135.258 241.168 146.372 240.747 156.897C240.157 173.232 235.063 185.778 225.464 194.535C215.865 203.292 202.435 207.671 185.174 207.671ZM185.174 201.608C200.288 201.608 211.929 197.672 220.096 189.799C228.264 181.926 232.621 170.896 233.169 156.708C233.548 146.477 233.8 135.636 233.926 124.185C234.053 112.692 234.053 100.819 233.926 88.5679C233.842 76.2744 233.59 63.8547 233.169 51.3087C232.748 36.9524 228.39 25.922 220.096 18.2175C211.803 10.471 200.162 6.59773 185.174 6.59773C169.849 6.59773 158.062 10.4921 149.81 18.2807C141.558 26.0272 137.264 37.0155 136.927 51.2456C136.632 64.0863 136.443 76.4849 136.359 88.4416C136.274 100.356 136.274 111.976 136.359 123.301C136.485 134.584 136.674 145.72 136.927 156.708C137.306 171.906 141.832 183.189 150.504 190.557C159.219 197.925 170.776 201.608 185.174 201.608ZM185.174 195.546C173.386 195.546 163.745 192.43 156.251 186.199C148.757 179.969 144.842 170.075 144.505 156.518C144.21 145.025 144.021 133.616 143.937 122.291C143.853 110.923 143.853 99.3877 143.937 87.6837C144.063 75.9797 144.253 63.8968 144.505 51.435C144.8 38.9732 148.442 29.3953 155.43 22.7013C162.461 16.0072 172.375 12.6602 185.174 12.6602C197.762 12.6602 207.55 16.0283 214.539 22.7644C221.528 29.4584 225.212 39.0363 225.591 51.4982C225.969 63.6232 226.222 75.7482 226.348 87.8732C226.475 99.9982 226.475 111.85 226.348 123.427C226.264 135.005 226.012 146.056 225.591 156.582C225.127 169.043 221.381 178.663 214.35 185.442C207.361 192.178 197.636 195.546 185.174 195.546ZM185.174 189.483C195.194 189.483 203.067 186.642 208.792 180.958C214.518 175.232 217.591 167.044 218.012 156.392C218.391 146.077 218.644 135.237 218.77 123.869C218.896 112.46 218.896 100.714 218.77 88.631C218.686 76.506 218.433 64.2126 218.012 51.7508C217.676 40.6783 214.56 32.4055 208.666 26.9324C202.814 21.4593 194.984 18.7227 185.174 18.7227C174.775 18.7227 166.713 21.5645 160.988 27.2481C155.304 32.8896 152.336 40.994 152.083 51.5613C151.789 64.5283 151.599 76.9691 151.515 88.8836C151.431 100.798 151.431 112.334 151.515 123.49C151.641 134.605 151.831 145.551 152.083 156.329C152.378 167.738 155.557 176.116 161.619 181.463C167.682 186.81 175.533 189.483 185.174 189.483ZM185.174 183.421C177.049 183.421 170.818 181.042 166.482 176.285C162.145 171.485 159.872 164.77 159.661 156.14C159.451 147.593 159.282 139.11 159.156 130.69C159.072 122.227 159.03 113.702 159.03 105.113C159.03 96.5249 159.072 87.81 159.156 78.9689C159.282 70.1277 159.451 61.055 159.661 51.7508C159.872 43.0359 162.187 36.3629 166.608 31.7319C171.029 27.1008 177.217 24.7852 185.174 24.7852C192.163 24.7852 198.036 26.8903 202.793 31.1004C207.593 35.3104 210.14 42.2781 210.434 52.0034C210.855 64.5494 211.129 76.6744 211.255 88.3784C211.382 100.082 211.382 111.513 211.255 122.669C211.129 133.826 210.855 144.857 210.434 155.761C210.098 164.854 207.719 171.738 203.298 176.411C198.878 181.084 192.836 183.421 185.174 183.421ZM185.174 177.358C190.647 177.358 194.899 175.464 197.93 171.675C200.962 167.886 202.604 162.497 202.856 155.508C203.193 147.088 203.425 138.668 203.551 130.248C203.677 121.785 203.74 113.281 203.74 104.735C203.74 96.1881 203.656 87.5574 203.488 78.8426C203.361 70.0856 203.151 61.2234 202.856 52.256C202.646 45.3515 201.025 40.0678 197.994 36.405C194.962 32.7002 190.689 30.8477 185.174 30.8477C179.575 30.8477 175.217 32.6581 172.102 36.2788C169.029 39.8994 167.408 45.0989 167.239 51.8771C167.029 61.6865 166.861 71.1592 166.734 80.2951C166.657 88.6716 166.615 96.8181 166.609 104.735C166.608 105.452 166.608 106.168 166.608 106.882C166.608 115.47 166.65 123.848 166.734 132.016C166.861 140.141 167.029 148.119 167.239 155.95C167.45 162.939 169.092 168.265 172.165 171.927C175.281 175.548 179.617 177.358 185.174 177.358Z" fill="#FF0000"/>
<path d="M261.926 205.145V3.06127H315.731C326.214 3.06127 335.476 4.38745 343.517 7.03979C351.558 9.69213 357.916 14.7442 362.589 22.1961C367.262 29.6058 369.746 40.4888 370.041 54.8452C370.335 66.886 370.525 77.8532 370.609 87.7469C370.693 97.6406 370.693 107.724 370.609 117.996C370.525 128.227 370.335 139.931 370.041 153.108C369.746 167.17 367.346 177.948 362.841 185.442C358.379 192.936 352.127 198.093 344.086 200.914C336.086 203.734 326.635 205.145 315.731 205.145H261.926ZM269.504 198.577H315.731C321.793 198.577 327.582 198.051 333.097 196.998C338.612 195.904 343.538 193.799 347.875 190.683C352.211 187.568 355.663 182.979 358.231 176.916C360.842 170.854 362.252 162.834 362.462 152.856C362.715 141.531 362.883 130.626 362.968 120.143C363.052 109.66 363.052 99.1141 362.968 88.5047C362.883 77.8532 362.715 66.7176 362.462 55.0978C362.21 42.7623 360.126 33.3317 356.21 26.8061C352.295 20.2384 346.885 15.7336 339.981 13.2917C333.076 10.8499 324.993 9.62898 315.731 9.62898H269.504V198.577ZM277.082 192.009V16.1967H315.731C323.435 16.1967 330.171 17.2071 335.939 19.2279C341.749 21.2488 346.296 25.0589 349.58 30.6583C352.906 36.2577 354.674 44.4042 354.884 55.0978C355.095 64.823 355.242 73.6642 355.326 81.6212C355.411 89.5362 355.453 97.1564 355.453 104.482C355.453 111.765 355.411 119.301 355.326 127.09C355.242 134.837 355.095 143.425 354.884 152.856C354.674 163.76 352.863 172.033 349.453 177.674C346.043 183.273 341.433 187.063 335.623 189.041C329.813 191.02 323.182 192.009 315.731 192.009H277.082ZM284.66 185.442H315.731C325.54 185.442 333.181 183.21 338.655 178.748C344.128 174.243 347.012 165.528 347.306 152.603C347.559 141.067 347.727 130.142 347.811 119.828C347.896 109.513 347.896 99.1562 347.811 88.7573C347.727 78.3163 347.559 67.1807 347.306 55.3504C347.012 42.5097 344.128 33.879 338.655 29.4584C333.181 24.9957 325.54 22.7644 315.731 22.7644H284.66V185.442ZM292.238 178.874V29.3321H315.731C319.604 29.3321 323.33 29.8794 326.908 30.9741C330.487 32.0266 333.455 34.4053 335.813 38.1101C338.212 41.815 339.496 47.6459 339.665 55.603C339.96 67.2649 340.149 78.2742 340.233 88.631C340.36 98.9457 340.36 109.239 340.233 119.512C340.149 129.784 339.96 140.731 339.665 152.35C339.37 163.17 337.076 170.306 332.781 173.759C328.487 177.169 322.804 178.874 315.731 178.874H292.238ZM299.817 172.306H315.731C319.183 172.306 322.109 171.717 324.509 170.538C326.908 169.359 328.761 167.317 330.066 164.412C331.371 161.507 332.066 157.487 332.15 152.35C332.403 141.194 332.571 130.416 332.655 120.017C332.739 109.618 332.739 99.1562 332.655 88.631C332.571 78.0637 332.403 67.0544 332.15 55.603C331.982 47.8143 330.445 42.5938 327.54 39.9415C324.677 37.2471 320.741 35.8998 315.731 35.8998H299.817V172.306Z" fill="white"/>
<path d="M390.882 205.145V3.06127H483.336V9.62898H398.461V198.577H483.336V205.145H390.882ZM421.195 178.874V112.186H480.81V118.754H428.773V172.306H483.336V178.874H421.195ZM406.039 192.009V16.1967H483.336V22.7644H413.617V99.0509H480.81V105.619H413.617V185.442H483.336V192.009H406.039ZM421.195 92.4832V29.3321H483.336V35.8998H428.773V85.9155H480.81V92.4832H421.195Z" fill="white"/>
<path d="M74.3753 304.088C74.3753 307.548 73.5105 310.719 71.7809 313.601C70.0512 316.484 67.745 318.79 64.8623 320.52C61.9796 322.249 58.8086 323.114 55.3493 323.114H27.6751C24.2158 323.114 20.9968 322.249 18.0179 320.52C15.1352 318.79 12.829 316.484 11.0994 313.601C9.36974 310.719 8.50492 307.548 8.50492 304.088V299.764C8.50492 297.938 9.12951 296.401 10.3787 295.152C11.724 293.807 13.3095 293.134 15.1352 293.134H19.171C20.9007 293.134 22.3901 293.807 23.6393 295.152C24.9845 296.401 25.6572 297.938 25.6572 299.764V304.088C25.6572 304.569 25.8493 305.049 26.2337 305.53C26.7142 305.914 27.1946 306.106 27.6751 306.106H55.3493C55.8297 306.106 56.2622 305.914 56.6465 305.53C57.0309 305.049 57.2231 304.569 57.2231 304.088V290.972C57.2231 289.915 56.7426 289.242 55.7817 288.954L21.1889 275.982C17.3453 274.636 14.2704 272.282 11.9642 268.919C9.65801 265.556 8.50492 261.856 8.50492 257.82V244.848C8.50492 241.293 9.36974 238.074 11.0994 235.191C12.829 232.308 15.1352 230.002 18.0179 228.272C20.9968 226.543 24.2158 225.678 27.6751 225.678H55.3493C58.8086 225.678 61.9796 226.543 64.8623 228.272C67.745 230.002 70.0512 232.308 71.7809 235.191C73.5105 238.074 74.3753 241.293 74.3753 244.848V248.74C74.3753 250.566 73.7027 252.103 72.3574 253.352C71.1082 254.601 69.5708 255.226 67.745 255.226H63.8533C62.0276 255.226 60.4421 254.601 59.0968 253.352C57.8477 252.103 57.2231 250.566 57.2231 248.74V244.848C57.2231 243.503 56.5985 242.83 55.3493 242.83H27.6751C27.1946 242.83 26.7142 243.022 26.2337 243.407C25.8493 243.791 25.6572 244.272 25.6572 244.848V257.82C25.6572 258.974 26.1376 259.694 27.0985 259.983L61.8354 272.955C65.583 274.3 68.6099 276.654 70.916 280.017C73.2222 283.381 74.3753 287.032 74.3753 290.972V304.088ZM164.758 265.892C164.758 269.351 163.893 272.522 162.163 275.405C160.53 278.288 158.272 280.594 155.389 282.324C152.506 284.053 149.287 284.918 145.732 284.918H119.211C118.058 284.918 117.481 285.543 117.481 286.792V316.484C117.481 318.31 116.808 319.895 115.463 321.241C114.214 322.49 112.677 323.114 110.851 323.114H106.959C105.133 323.114 103.548 322.49 102.203 321.241C100.953 319.895 100.329 318.31 100.329 316.484V232.308C100.329 230.386 100.953 228.801 102.203 227.552C103.548 226.303 105.133 225.678 106.959 225.678H145.732C149.287 225.678 152.506 226.543 155.389 228.272C158.272 230.002 160.53 232.308 162.163 235.191C163.893 238.074 164.758 241.293 164.758 244.848V265.892ZM147.75 265.892V244.848C147.75 243.503 147.077 242.83 145.732 242.83H119.211C118.058 242.83 117.481 243.455 117.481 244.704V265.892C117.481 267.141 118.058 267.766 119.211 267.766H145.732C147.077 267.766 147.75 267.141 147.75 265.892ZM256.049 314.034C257.01 316.244 256.866 318.262 255.617 320.087C254.175 322.105 252.35 323.114 250.14 323.114H245.816C244.566 323.114 243.317 322.73 242.068 321.961C240.915 321.192 240.098 320.232 239.618 319.078L226.069 286.648C225.588 285.495 224.724 284.918 223.474 284.918H210.07C208.821 284.918 208.196 285.543 208.196 286.792V316.484C208.196 318.31 207.523 319.895 206.178 321.241C204.929 322.49 203.391 323.114 201.566 323.114H197.53C195.704 323.114 194.167 322.49 192.917 321.241C191.764 319.895 191.188 318.31 191.188 316.484V232.308C191.188 230.386 191.764 228.801 192.917 227.552C194.167 226.303 195.704 225.678 197.53 225.678H236.591C240.05 225.678 243.221 226.543 246.104 228.272C248.987 230.002 251.293 232.308 253.022 235.191C254.752 238.074 255.617 241.293 255.617 244.848V265.892C255.617 269.64 254.608 273.051 252.59 276.126C250.668 279.105 248.122 281.411 244.951 283.044C244.566 283.14 244.278 283.477 244.086 284.053C243.894 284.534 243.942 285.014 244.23 285.495L256.049 314.034ZM238.465 265.892V244.848C238.465 243.503 237.84 242.83 236.591 242.83H210.07C208.821 242.83 208.196 243.455 208.196 244.704V265.892C208.196 267.141 208.821 267.766 210.07 267.766H236.591C237.84 267.766 238.465 267.141 238.465 265.892ZM300.164 316.484C300.164 318.31 299.491 319.895 298.146 321.241C296.897 322.49 295.359 323.114 293.534 323.114H289.642C287.816 323.114 286.231 322.49 284.886 321.241C283.636 319.895 283.012 318.31 283.012 316.484V232.308C283.012 230.386 283.636 228.801 284.886 227.552C286.231 226.303 287.816 225.678 289.642 225.678H293.534C295.359 225.678 296.897 226.303 298.146 227.552C299.491 228.801 300.164 230.386 300.164 232.308V316.484ZM392.292 316.484C392.292 318.31 391.619 319.895 390.274 321.241C389.025 322.49 387.488 323.114 385.662 323.114H381.482C378.887 323.114 376.966 322.009 375.716 319.799L345.015 266.613C344.823 266.228 344.535 266.132 344.15 266.325C343.766 266.421 343.574 266.613 343.574 266.901V316.484C343.574 318.31 342.901 319.895 341.556 321.241C340.307 322.49 338.817 323.114 337.088 323.114H333.052C331.226 323.114 329.641 322.49 328.295 321.241C327.046 319.895 326.422 318.31 326.422 316.484V232.308C326.422 230.386 327.046 228.801 328.295 227.552C329.641 226.303 331.226 225.678 333.052 225.678H337.232C339.826 225.678 341.748 226.783 342.997 228.993L373.698 282.18C373.987 282.564 374.275 282.708 374.563 282.612C374.948 282.516 375.14 282.276 375.14 281.891V232.308C375.14 230.386 375.764 228.801 377.014 227.552C378.359 226.303 379.944 225.678 381.77 225.678H385.662C387.488 225.678 389.025 226.303 390.274 227.552C391.619 228.801 392.292 230.386 392.292 232.308V316.484ZM482.675 236.2C482.675 238.026 482.05 239.611 480.801 240.956C479.552 242.206 477.966 242.83 476.044 242.83H460.91C459.661 242.83 459.036 243.455 459.036 244.704V316.484C459.036 318.31 458.364 319.895 457.018 321.241C455.769 322.49 454.232 323.114 452.406 323.114H448.658C446.833 323.114 445.247 322.49 443.902 321.241C442.653 319.895 442.028 318.31 442.028 316.484V244.704C442.028 243.455 441.404 242.83 440.154 242.83H424.876C423.05 242.83 421.465 242.206 420.119 240.956C418.87 239.611 418.246 238.026 418.246 236.2V232.308C418.246 230.386 418.87 228.801 420.119 227.552C421.465 226.303 423.05 225.678 424.876 225.678H476.044C477.966 225.678 479.552 226.303 480.801 227.552C482.05 228.801 482.675 230.386 482.675 232.308V236.2Z" fill="white"/>
<path d="M573.586 259.344V317.094H552.495C551.413 317.094 550.273 316.977 549.075 316.743C547.847 316.48 546.634 316.085 545.435 315.559C544.237 315.033 543.096 314.36 542.015 313.542C540.933 312.694 539.983 311.686 539.165 310.516C538.317 309.318 537.645 307.944 537.148 306.394C536.651 304.845 536.402 303.091 536.402 301.133V275.437C536.402 273.888 536.022 272.748 535.262 272.017C534.473 271.257 533.333 270.877 531.842 270.877H526.799C525.25 270.877 524.081 271.257 523.291 272.017C522.502 272.777 522.107 273.888 522.107 275.349V311.963H510.707V275.349C510.707 273.42 510.955 271.681 511.452 270.131C511.949 268.582 512.621 267.223 513.469 266.053C514.288 264.855 515.238 263.832 516.319 262.984C517.401 262.136 518.541 261.449 519.739 260.923C520.909 260.367 522.107 259.973 523.335 259.739C524.534 259.476 525.659 259.344 526.711 259.344H531.842C534.794 259.344 537.294 259.885 539.34 260.967C541.357 262.019 543.009 263.349 544.295 264.957C545.552 266.565 546.473 268.304 547.057 270.175C547.613 272.017 547.891 273.741 547.891 275.349V301.133C547.891 302.068 548.022 302.813 548.285 303.369C548.548 303.924 548.899 304.363 549.338 304.684C549.776 304.977 550.273 305.196 550.828 305.342C551.384 305.488 551.939 305.605 552.495 305.693H562.185V259.344H573.586ZM547.277 164.269C549.849 164.269 552.29 164.605 554.6 165.277C556.88 165.921 558.999 166.841 560.958 168.04C562.916 169.238 564.67 170.656 566.22 172.293C567.769 173.93 569.099 175.728 570.21 177.687C571.291 179.616 572.125 181.677 572.709 183.869C573.294 186.062 573.586 188.298 573.586 190.578V211.144C573.586 213.453 573.294 215.704 572.709 217.896C572.125 220.089 571.291 222.164 570.21 224.123C569.099 226.052 567.769 227.836 566.22 229.473C564.67 231.11 562.916 232.527 560.958 233.726C558.999 234.895 556.88 235.816 554.6 236.488C552.29 237.132 549.849 237.453 547.277 237.453H537.016C533.157 237.453 529.62 236.737 526.405 235.305C523.189 233.843 520.426 231.899 518.117 229.473C515.778 227.046 513.966 224.255 512.68 221.097C511.364 217.911 510.707 214.593 510.707 211.144V190.578C510.707 188.298 510.999 186.062 511.584 183.869C512.168 181.677 513.016 179.616 514.127 177.687C515.208 175.728 516.524 173.93 518.073 172.293C519.623 170.656 521.376 169.238 523.335 168.04C525.294 166.841 527.428 165.921 529.737 165.277C532.017 164.605 534.444 164.269 537.016 164.269H547.277ZM537.016 175.757C534.765 175.757 532.719 176.167 530.877 176.985C529.035 177.804 527.457 178.9 526.141 180.274C524.826 181.619 523.817 183.183 523.116 184.966C522.414 186.749 522.078 188.62 522.107 190.578V211.144C522.078 213.044 522.414 214.9 523.116 216.712C523.788 218.496 524.782 220.089 526.098 221.492C527.384 222.866 528.962 223.977 530.833 224.825C532.675 225.643 534.736 226.052 537.016 226.052H547.277C549.557 226.052 551.618 225.643 553.459 224.825C555.301 224.006 556.88 222.91 558.195 221.536C559.481 220.162 560.475 218.583 561.177 216.8C561.878 214.988 562.215 213.102 562.185 211.144V190.578C562.185 188.327 561.82 186.296 561.089 184.483C560.329 182.642 559.291 181.078 557.976 179.792C556.66 178.505 555.096 177.511 553.284 176.81C551.442 176.108 549.44 175.757 547.277 175.757H537.016ZM528.685 180.712C529.328 180.274 530.029 179.982 530.789 179.835C531.52 179.689 532.251 179.689 532.982 179.835C533.683 179.982 534.356 180.274 534.999 180.712C535.613 181.122 536.139 181.662 536.578 182.335L557.143 213.117C557.523 213.614 557.786 214.125 557.932 214.652C558.078 215.178 558.151 215.719 558.151 216.274C558.151 217.209 557.932 218.101 557.494 218.949C557.055 219.797 556.427 220.484 555.608 221.01C554.965 221.448 554.278 221.741 553.547 221.887C552.787 222.033 552.056 222.047 551.355 221.931C550.624 221.784 549.952 221.507 549.338 221.097C548.694 220.688 548.154 220.147 547.715 219.475L527.15 188.605C526.711 187.962 526.419 187.275 526.273 186.544C526.127 185.784 526.127 185.053 526.273 184.352C526.419 183.621 526.697 182.949 527.106 182.335C527.515 181.692 528.042 181.151 528.685 180.712ZM573.586 85.2423V142.992H552.495C551.413 142.992 550.273 142.875 549.075 142.641C547.847 142.378 546.634 141.983 545.435 141.457C544.237 140.931 543.096 140.258 542.015 139.44C540.933 138.592 539.983 137.584 539.165 136.414C538.317 135.216 537.645 133.842 537.148 132.292C536.651 130.743 536.402 128.989 536.402 127.031V101.335C536.402 99.7856 536.022 98.6455 535.262 97.9147C534.473 97.1546 533.333 96.7746 531.842 96.7746H526.799C525.25 96.7746 524.081 97.1546 523.291 97.9147C522.502 98.6747 522.107 99.7856 522.107 101.247V137.861H510.707V101.247C510.707 99.3179 510.955 97.5785 511.452 96.0292C511.949 94.4798 512.621 93.1205 513.469 91.9512C514.288 90.7527 515.238 89.7295 516.319 88.8818C517.401 88.034 518.541 87.347 519.739 86.8209C520.909 86.2654 522.107 85.8708 523.335 85.6369C524.534 85.3738 525.659 85.2423 526.711 85.2423H531.842C534.794 85.2423 537.294 85.7831 539.34 86.8647C541.357 87.9171 543.009 89.2472 544.295 90.855C545.552 92.4628 546.473 94.2021 547.057 96.073C547.613 97.9147 547.891 99.6394 547.891 101.247V127.031C547.891 127.966 548.022 128.711 548.285 129.267C548.548 129.822 548.899 130.261 549.338 130.582C549.776 130.875 550.273 131.094 550.828 131.24C551.384 131.386 551.939 131.503 552.495 131.591H562.185V85.2423H573.586ZM557.581 4.98787C558.663 4.98787 559.803 5.11942 561.001 5.38251C562.2 5.61638 563.399 6.01102 564.597 6.56644C565.766 7.09263 566.892 7.7796 567.973 8.62735C569.055 9.44587 570.02 10.4544 570.868 11.6529C571.686 12.8222 572.344 14.1816 572.841 15.7309C573.338 17.2802 573.586 19.0196 573.586 20.949V62.7372H562.185V20.949C562.185 19.5165 561.747 18.4203 560.87 17.6603C559.993 16.871 558.897 16.4763 557.581 16.4763H552.495C551.004 16.4763 549.864 16.8564 549.075 17.6164C548.285 18.3765 547.891 19.5165 547.891 21.0367V46.7322C547.891 49.6847 547.364 52.1841 546.312 54.2304C545.23 56.2475 543.886 57.8845 542.278 59.1415C540.67 60.3985 538.931 61.3194 537.06 61.904C535.189 62.4595 533.45 62.7372 531.842 62.7372H510.707V10.2059H522.107V51.3364H531.842C533.362 51.3364 534.502 50.9418 535.262 50.1525C536.022 49.3632 536.402 48.2231 536.402 46.7322V20.949C536.402 19.3704 536.694 17.6457 537.279 15.7748C537.835 13.9039 538.755 12.1791 540.042 10.6006C541.299 8.99276 542.95 7.66267 544.997 6.61029C547.043 5.52868 549.542 4.98787 552.495 4.98787H557.581Z" fill="#FF0000"/>
</svg>
