<svg width="70" height="71" viewBox="0 0 70 71" fill="none" xmlns="http://www.w3.org/2000/svg">
<path d="M46.6706 35.2812C46.6705 32.5826 45.7347 29.9676 44.0227 27.8815C42.3107 25.7955 39.9284 24.3676 37.2816 23.8411C34.6349 23.3146 31.8875 23.7221 29.5075 24.9941C27.1275 26.2662 25.2621 28.324 24.2293 30.8172C23.1964 33.3103 23.06 36.0844 23.8431 38.6669C24.6263 41.2493 26.2806 43.4804 28.5242 44.9799C30.7679 46.4794 33.4621 47.1545 36.1477 46.8904C38.8333 46.6262 41.3443 45.439 43.2528 43.5311C44.3364 42.4843 45.1976 41.2296 45.7849 39.8421C46.3722 38.4546 46.6734 36.9629 46.6706 35.4562L46.6676 35.2725L46.6706 35.2812ZM52.9695 35.2812C52.9555 39.4177 51.5086 43.4215 48.875 46.6113C46.2413 49.8011 42.5838 51.9798 38.5247 52.7765C34.4657 53.5732 30.256 52.9388 26.612 50.9812C22.9681 49.0236 20.115 45.8637 18.5385 42.0395C16.9619 38.2152 16.7592 33.9628 17.9649 30.0059C19.1707 26.049 21.7102 22.6322 25.1515 20.3369C28.5928 18.0416 32.7231 17.0097 36.8395 17.4168C40.9559 17.8238 44.8041 19.6448 47.7291 22.5696C49.3905 24.1812 50.7108 26.1105 51.6115 28.2426C52.5123 30.3748 52.9751 32.6663 52.9724 34.9809L52.9695 35.2987V35.2812ZM57.8891 16.6002V16.606C57.8894 17.5776 57.5528 18.5192 56.9367 19.2704C56.3206 20.0216 55.4631 20.5359 54.5103 20.7258C53.5575 20.9156 52.5683 20.7692 51.7113 20.3114C50.8544 19.8537 50.1826 19.113 49.8106 18.2155C49.4386 17.318 49.3892 16.3193 49.671 15.3895C49.9528 14.4597 50.5482 13.6564 51.3559 13.1164C52.1636 12.5764 53.1335 12.3332 54.1004 12.4282C55.0673 12.5232 55.9713 12.9505 56.6585 13.6374C57.405 14.3693 57.8687 15.39 57.8687 16.5185V16.6031L57.8891 16.6002ZM35.0262 6.56854L31.5414 6.54521C29.4301 6.52965 27.8272 6.52965 26.7326 6.54521C25.6381 6.56076 24.1722 6.60645 22.335 6.68227C20.6291 6.74059 19.0106 6.90973 17.4271 7.17802L17.64 7.14885C16.4006 7.35299 15.3012 7.64461 14.2485 8.03246L14.3739 7.99163C12.8869 8.58992 11.5346 9.47969 10.3968 10.6085C9.25888 11.7374 8.35839 13.0825 7.74829 14.5647L7.71913 14.6434C7.34523 15.6681 7.06796 16.7254 6.89093 17.8017L6.87635 17.9096C6.61908 19.4422 6.46418 20.9902 6.41268 22.5434L6.40976 22.6046C6.33394 24.4437 6.28826 25.9096 6.2727 27.0022C6.25715 28.0948 6.25715 29.6977 6.2727 31.811C6.28826 33.9243 6.29603 35.0859 6.29603 35.2958C6.29603 35.5058 6.28826 36.6674 6.2727 38.7807C6.25715 40.8939 6.25715 42.4968 6.2727 43.5894C6.28826 44.682 6.33394 46.1479 6.40976 47.987C6.46809 49.693 6.63723 51.3115 6.90552 52.895L6.87635 52.6821C7.08049 53.9215 7.3721 55.0209 7.75996 56.0736L7.71913 55.9482C8.31742 57.4352 9.20719 58.7874 10.336 59.9253C11.4649 61.0632 12.81 61.9637 14.2922 62.5738L14.3709 62.6029C15.2983 62.95 16.3977 63.2416 17.5292 63.4311L17.6371 63.4457C19.0047 63.6848 20.6232 63.854 22.268 63.9094L22.3292 63.9123C24.1683 63.9881 25.6342 64.0338 26.7268 64.0494C27.8194 64.0649 29.4223 64.0649 31.5356 64.0494L35 63.9794L38.4848 64.0027C40.5961 64.0183 42.1991 64.0183 43.2936 64.0027C44.3882 63.9872 45.854 63.9415 47.6912 63.8657C49.3972 63.8073 51.0157 63.6382 52.5992 63.3699L52.3863 63.3991C53.6256 63.1949 54.725 62.9033 55.7778 62.5155L55.6524 62.5563C57.1394 61.958 58.4916 61.0682 59.6295 59.9394C60.7674 58.8105 61.6679 57.4654 62.278 55.9832L62.3071 55.9045C62.6541 54.9771 62.9458 53.8777 63.1353 52.7463L63.1499 52.6384C63.389 51.2707 63.5582 49.6522 63.6136 48.0075L63.6165 47.9462C63.6923 46.1071 63.738 44.6412 63.7535 43.5486C63.7691 42.456 63.7691 40.8531 63.7535 38.7398C63.738 36.6266 63.7302 35.465 63.7302 35.255C63.7302 35.045 63.738 33.8834 63.7535 31.7702C63.7691 29.6569 63.7691 28.054 63.7535 26.9614C63.738 25.8688 63.6923 24.4029 63.6165 22.5638C63.5582 20.8578 63.389 19.2393 63.1207 17.6559L63.1499 17.8687C62.9641 16.7127 62.6682 15.577 62.2663 14.4772L62.3071 14.6026C61.7088 13.1156 60.8191 11.7634 59.6902 10.6255C58.5613 9.48764 57.2162 8.58715 55.734 7.97705L55.6553 7.94789C54.6307 7.57399 53.5733 7.29672 52.4971 7.11969L52.3892 7.10511C50.8576 6.84796 49.3105 6.69306 47.7583 6.64144L47.697 6.63852C45.8579 6.5627 44.392 6.51702 43.2994 6.50146C42.2069 6.48591 40.6039 6.48591 38.4907 6.50146L35.0262 6.56854ZM70 35.2812C70 42.2373 69.9222 47.0519 69.7667 49.7251C69.9045 52.4342 69.4717 55.142 68.4961 57.6731C67.5205 60.2041 66.024 62.502 64.1036 64.4178C62.1832 66.3335 59.8817 67.8244 57.3482 68.7938C54.8148 69.7632 52.1059 70.1895 49.3972 70.045L49.4438 70.048C46.7707 70.2035 41.9561 70.2812 35 70.2812C28.0439 70.2812 23.2293 70.2035 20.5562 70.048C17.8471 70.1858 15.1393 69.7529 12.6082 68.7773C10.0771 67.8018 7.77923 66.3053 5.86349 64.3849C3.94774 62.4644 2.45686 60.1629 1.48746 57.6295C0.518057 55.096 0.0917661 52.3872 0.236211 49.6784L0.233294 49.7251C0.0777648 47.0519 0 42.2373 0 35.2812C0 28.3252 0.0777648 23.5106 0.233294 20.8374C0.0954508 18.1283 0.528341 15.4205 1.50391 12.8894C2.47948 10.3583 3.97597 8.06048 5.89639 6.14474C7.81681 4.22899 10.1183 2.73811 12.6518 1.76871C15.1852 0.799307 17.8941 0.373016 20.6028 0.517461L20.5562 0.514544C23.2293 0.359015 28.0439 0.28125 35 0.28125C41.9561 0.28125 46.7707 0.359015 49.4438 0.514544C52.1529 0.376701 54.8607 0.809591 57.3918 1.78516C59.9229 2.76073 62.2208 4.25722 64.1365 6.17764C66.0523 8.09806 67.5431 10.3996 68.5125 12.933C69.4819 15.4665 69.9082 18.1753 69.7638 20.8841L69.7667 20.8374C69.9222 23.5086 70 28.3232 70 35.2812Z" fill="black"/>
</svg>
