<svg width="70" height="71" viewBox="0 0 70 71" fill="none" xmlns="http://www.w3.org/2000/svg">
<path d="M59.6371 59.9329H49.2713V43.69C49.2713 39.8167 49.1925 34.8321 43.8696 34.8321C38.465 34.8321 37.6396 39.0467 37.6396 43.4042V59.9329H27.2738V26.5312H37.2313V31.0842H37.3654C38.7567 28.4592 42.14 25.6883 47.1946 25.6883C57.6975 25.6883 59.64 32.6008 59.64 41.5988L59.6371 59.9329ZM15.5662 21.9608C14.7753 21.962 13.9918 21.8069 13.2609 21.5046C12.53 21.2023 11.8659 20.7586 11.3069 20.199C10.7478 19.6394 10.3048 18.9749 10.0032 18.2437C9.70153 17.5125 9.54725 16.7289 9.54917 15.9379C9.54974 14.7473 9.90338 13.5835 10.5653 12.5939C11.2273 11.6042 12.1679 10.8331 13.2681 10.378C14.3683 9.92286 15.5788 9.80423 16.7465 10.0371C17.9141 10.2699 18.9865 10.8438 19.828 11.6861C20.6695 12.5284 21.2423 13.6014 21.4741 14.7693C21.7058 15.9371 21.586 17.1475 21.1298 18.2473C20.6736 19.3471 19.9016 20.2869 18.9113 20.9479C17.921 21.6089 16.7569 21.9614 15.5662 21.9608ZM20.7638 59.9329H10.3688V26.5312H20.7638V59.9329ZM64.8229 0.28125H5.16542C2.31 0.28125 0 2.53875 0 5.32417V65.2383C0 68.0267 2.31 70.2812 5.16542 70.2812H64.8142C67.6667 70.2812 70 68.0267 70 65.2383V5.32417C70 2.53875 67.6667 0.28125 64.8142 0.28125H64.8229Z" fill="black"/>
</svg>
