<svg width="143" height="69" viewBox="0 0 143 69" fill="none" xmlns="http://www.w3.org/2000/svg">
<path d="M2.24881 46.064L2.87281 44.384H24.0888L23.8968 46.064H2.24881ZM14.7288 47.216H11.0328L10.6008 48.56H1.43281L2.05681 46.736H23.8488L23.7048 48.56H14.5848L14.7288 47.216ZM3.11281 43.616L3.64081 42.032H24.2808L24.1368 43.616H3.11281ZM8.05681 28.928L8.39281 27.92H25.5768L25.4328 28.928H8.05681ZM8.87281 26.48L9.16081 25.568H25.7688L25.6728 26.48H8.87281ZM3.92881 41.168L4.45681 39.68H13.5768L13.0968 41.168H3.92881ZM15.2088 41.168L15.4488 39.68H24.5208L24.3768 41.168H15.2088ZM9.68881 24.032L9.97681 23.216H26.0088L25.9128 24.032H9.68881ZM4.74481 38.72L5.22481 37.328H14.2488L13.8168 38.72H4.74481ZM15.5448 38.72L15.6888 37.328H24.7128L24.5688 38.72H15.5448ZM5.56081 36.272L6.04081 34.976H14.9688L14.5848 36.272H5.56081ZM15.8328 36.272L16.0248 34.976H24.9528L24.8088 36.272H15.8328ZM10.5528 21.584L10.7928 20.864H26.2008L26.1528 21.584H10.5528ZM6.42481 33.824L6.80881 32.624H15.6408L15.3048 33.824H6.42481ZM16.1688 33.824L16.2648 32.624H25.1448L25.0488 33.824H16.1688ZM16.4088 31.376L16.5528 30.272H25.3368L25.2408 31.376H16.4088ZM7.19281 31.376L7.57681 30.272H16.3608L16.0248 31.376H7.19281ZM1.00081 50L1.28881 49.04H10.4568L10.1688 50H1.00081ZM23.6568 49.04L23.6088 50H14.4408L14.5368 49.04H23.6568ZM11.3688 19.136L11.5608 18.56H26.3928L26.3448 19.136H11.3688ZM12.2328 16.64V16.592H26.5848V16.64H12.2328ZM52.0214 46.736C51.5894 47.504 51.0614 48.128 50.4854 48.56H31.5254L31.9094 46.736H52.0214ZM52.6934 45.008C52.5974 45.488 52.4534 45.824 52.3574 46.064H32.0534L32.4374 44.384H42.0374L41.8934 45.008H43.0934L43.2374 44.384H52.8374L52.6934 45.008ZM43.8614 35.792L43.7654 36.272H34.1654L34.4534 34.976H54.2294C54.3254 35.264 54.3734 35.504 54.4694 35.696C54.5174 35.888 54.5654 36.08 54.5654 36.272H44.9654L45.0614 35.792H43.8614ZM53.1254 33.296C53.1734 33.392 53.2214 33.44 53.2694 33.536C53.3174 33.632 53.4134 33.728 53.5094 33.824H34.6934L34.9334 32.624H53.9414C53.7494 32.816 53.6054 32.96 53.4614 33.056C53.3174 33.152 53.2214 33.248 53.1254 33.296ZM55.8134 30.272C55.7174 30.608 55.4774 30.992 55.1414 31.376H35.1734L35.4134 30.272H45.0134L44.9174 30.8H46.1174L46.2134 30.272H55.8134ZM46.3574 50H31.2374L31.4294 49.04H49.8134C48.7094 49.712 47.5574 50 46.3574 50ZM32.5814 43.616L32.9174 42.032H42.5174L42.1814 43.616H32.5814ZM43.3814 43.616L43.7174 42.032H53.3174L52.9814 43.616H43.3814ZM37.2854 21.584L37.4294 20.864H57.7814C57.7334 21.008 57.7334 21.152 57.7334 21.248C57.7334 21.344 57.6854 21.488 57.6854 21.584H37.2854ZM33.1094 41.168L33.4454 39.68H43.0454L42.7094 41.168H33.1094ZM43.9094 41.168L44.2454 39.68H53.8454L53.5094 41.168H43.9094ZM33.6374 38.72L33.9254 37.328H43.5254L43.2374 38.72H33.6374ZM44.4374 38.72L44.7254 37.328H54.3254L54.0374 38.72H44.4374ZM57.3494 18.56C57.4454 18.848 57.5414 19.04 57.5894 19.136H37.8134L37.9094 18.56H57.3494ZM46.5014 28.928L46.7414 27.92H56.3414L56.1014 28.928H46.5014ZM35.7014 28.928L35.9414 27.92H45.5414L45.3014 28.928H35.7014ZM47.0294 26.48L47.2214 25.568H56.8214L56.6294 26.48H47.0294ZM36.2294 26.48L36.4214 25.568H46.0214L45.8294 26.48H36.2294ZM47.5574 24.032L47.7494 23.216H57.3494L57.1574 24.032H47.5574ZM36.7574 24.032L36.9494 23.216H46.5494L46.3574 24.032H36.7574ZM53.4614 16.592H53.8934C53.9894 16.592 54.1334 16.64 54.3254 16.64H38.3414V16.592H53.4614ZM61.3192 48.56C61.1272 48.32 60.9352 48.032 60.7912 47.744C60.6472 47.456 60.5512 47.12 60.5032 46.736H80.3752C79.9432 47.504 79.4152 48.128 78.8392 48.56H61.3192ZM60.6472 45.008L60.7912 44.384H70.3912L70.2472 45.008H71.4472L71.5912 44.384H81.1912L81.0472 45.008C80.9512 45.488 80.8072 45.824 80.7112 46.064H60.5032C60.5032 45.776 60.5512 45.392 60.6472 45.008ZM60.9352 43.616L61.2712 42.032H70.8712L70.5352 43.616H60.9352ZM71.7352 43.616L72.0712 42.032H81.6712L81.3352 43.616H71.7352ZM65.6392 21.584C65.6872 21.296 65.7352 21.056 65.8312 20.864H86.1352C86.0872 21.008 86.0872 21.152 86.0872 21.248C86.0872 21.344 86.0392 21.488 86.0392 21.584H65.6392ZM61.4632 41.168L61.7992 39.68H71.3992L71.0632 41.168H61.4632ZM72.2632 41.168L72.5992 39.68H82.1992L81.8632 41.168H72.2632ZM64.8712 50C63.5272 50 62.5192 49.712 61.7992 49.04H78.1672C77.0632 49.712 75.9112 50 74.7112 50H64.8712ZM72.7912 38.72L73.0792 37.328H82.6792L82.3912 38.72H72.7912ZM61.9912 38.72L62.2792 37.328H71.8792L71.5912 38.72H61.9912ZM73.3192 36.272L73.6072 34.976H83.2072L82.9192 36.272H73.3192ZM62.5192 36.272L62.8072 34.976H72.4072L72.1192 36.272H62.5192ZM73.8472 33.824L74.0872 32.624H83.6872L83.4472 33.824H73.8472ZM63.0472 33.824L63.2872 32.624H72.8872L72.6472 33.824H63.0472ZM85.7032 18.56C85.7992 18.848 85.8952 19.04 85.9432 19.136H66.7432C66.8392 19.04 66.8872 18.944 66.9832 18.848C67.0312 18.752 67.1272 18.656 67.2232 18.56H85.7032ZM74.3272 31.376L74.5672 30.272H84.1672L83.9272 31.376H74.3272ZM63.5272 31.376L63.7672 30.272H73.3672L73.1272 31.376H63.5272ZM74.8552 28.928L75.0952 27.92H84.6952L84.4552 28.928H74.8552ZM64.0552 28.928L64.2952 27.92H73.8952L73.6552 28.928H64.0552ZM75.3832 26.48L75.5752 25.568H85.1752L84.9832 26.48H75.3832ZM64.5832 26.48L64.7752 25.568H74.3752L74.1832 26.48H64.5832ZM75.9112 24.032L76.1032 23.216H85.7032L85.5112 24.032H75.9112ZM65.1112 24.032L65.3032 23.216H74.9032L74.7112 24.032H65.1112ZM81.8152 16.592H82.2472C82.3432 16.592 82.4872 16.64 82.6792 16.64H71.1112C71.2552 16.64 71.3992 16.592 71.5432 16.592H71.9752H81.8152ZM89.6729 48.56C89.4809 48.32 89.2889 48.032 89.1449 47.744C89.0009 47.456 88.9049 47.12 88.8569 46.736H108.729C108.297 47.504 107.769 48.128 107.193 48.56H89.6729ZM89.0009 45.008L89.1449 44.384H98.7449L98.6009 45.008H99.8009L99.9449 44.384H109.545L109.401 45.008C109.305 45.488 109.161 45.824 109.065 46.064H88.8569C88.8569 45.776 88.9049 45.392 89.0009 45.008ZM100.089 43.616L100.425 42.032H110.025L109.689 43.616H100.089ZM89.2889 43.616L89.6249 42.032H99.2249L98.8889 43.616H89.2889ZM100.617 41.168L100.953 39.68H110.553L110.217 41.168H100.617ZM89.8169 41.168L90.1529 39.68H99.7529L99.4169 41.168H89.8169ZM93.2249 50C91.8809 50 90.8729 49.712 90.1529 49.04H106.521C105.417 49.712 104.265 50 103.065 50H93.2249ZM101.145 38.72L101.433 37.328H111.033L110.745 38.72H101.145ZM90.3449 38.72L90.6329 37.328H100.233L99.9449 38.72H90.3449ZM101.673 36.272L101.961 34.976H111.561L111.273 36.272H101.673ZM90.8729 36.272L91.1609 34.976H100.761L100.473 36.272H90.8729ZM102.201 33.824L102.441 32.624H112.041L111.801 33.824H102.201ZM91.4009 33.824L91.6409 32.624H101.241L101.001 33.824H91.4009ZM102.681 31.376L102.921 30.272H112.521L112.281 31.376H102.681ZM91.8809 31.376L92.1209 30.272H101.721L101.481 31.376H91.8809ZM103.209 28.928L103.449 27.92H113.049L112.809 28.928H103.209ZM92.4089 28.928L92.6489 27.92H102.249L102.009 28.928H92.4089ZM103.737 26.48L103.929 25.568H113.529L113.337 26.48H103.737ZM92.9369 26.48L93.1289 25.568H102.729L102.537 26.48H92.9369ZM104.265 24.032L104.457 23.216H114.057L113.865 24.032H104.265ZM93.4649 24.032L93.6569 23.216H103.257L103.065 24.032H93.4649ZM104.793 21.584L104.937 20.864H114.537L114.393 21.584H104.793ZM93.9929 21.584L94.1369 20.864H103.737L103.593 21.584H93.9929ZM105.321 19.136L105.417 18.56H115.017L114.921 19.136H105.321ZM94.5209 19.136L94.6169 18.56H104.217L104.121 19.136H94.5209ZM115.449 16.592V16.64H105.849V16.592H115.449ZM104.649 16.592V16.64H95.0489V16.592H104.649ZM121.099 48.56L121.483 46.736H131.083L130.699 48.56H121.099ZM121.627 46.064L122.011 44.384H131.611L131.227 46.064H121.627ZM122.155 43.616L122.491 42.032H132.091L131.755 43.616H122.155ZM122.683 41.168L123.019 39.68H132.619L132.283 41.168H122.683ZM140.971 21.584H122.347L122.491 20.864H141.115L140.971 21.584ZM123.211 38.72L123.499 37.328H133.099L132.811 38.72H123.211ZM123.739 36.272L124.027 34.976H133.627L133.339 36.272H123.739ZM124.267 33.824L124.507 32.624H134.107L133.867 33.824H124.267ZM122.875 19.136L122.971 18.56H141.595L141.499 19.136H122.875ZM124.747 31.376L124.987 30.272H134.587L134.347 31.376H124.747ZM125.275 28.928L125.515 27.92H135.115L134.875 28.928H125.275ZM130.411 50H120.811L121.003 49.04H130.603L130.411 50ZM125.803 26.48L125.995 25.568H135.595L135.403 26.48H125.803ZM126.331 24.032L126.523 23.216H136.123L135.931 24.032H126.331ZM123.403 16.64V16.592H142.027V16.64H123.403Z" fill="#FF0000"/>
<path d="M56.5503 57.008V28.592H66.1503V57.008H67.3503V28.592H76.9503V57.008C76.9503 58.544 76.4223 59.792 75.4143 60.656C74.3583 61.568 73.1103 62 71.6703 62H61.8303C60.3423 62 59.0943 61.568 58.0863 60.656C57.0303 59.792 56.5503 58.544 56.5503 57.008ZM90.664 42.8H96.184C97.624 42.8 98.872 43.28 99.928 44.144C100.936 45.056 101.464 46.256 101.464 47.792V57.008C101.464 58.544 100.936 59.792 99.928 60.656C98.872 61.568 97.624 62 96.184 62H86.344C84.856 62 83.608 61.568 82.6 60.656C81.544 59.792 81.064 58.544 81.064 57.008V50.48H90.664V57.008H91.864V47.792H86.344C84.856 47.792 83.608 47.36 82.6 46.448C81.544 45.584 81.064 44.336 81.064 42.8V33.584C81.064 32.048 81.544 30.848 82.6 29.936C83.608 29.072 84.856 28.592 86.344 28.592H96.184C97.624 28.592 98.872 29.072 99.928 29.936C100.936 30.848 101.464 32.048 101.464 33.584V40.112H91.864V33.584H90.664V42.8Z" fill="white"/>
</svg>
