<svg width="62" height="50" viewBox="0 0 62 50" fill="none" xmlns="http://www.w3.org/2000/svg">
<path d="M20.4 49.7998C13.7 49.7998 7.19998 47.8998 1.79998 44.1998C0.899976 43.5998 0.599976 42.4998 0.899976 41.4998C1.29998 40.4998 2.29998 39.8998 3.29998 40.0998C4.09998 40.1998 4.89998 40.2998 5.69998 40.2998C8.59998 40.2998 11.4 39.6998 14 38.5998C10.8 36.9998 8.19998 34.1998 7.09998 30.5998C6.89998 29.8998 6.99998 29.1998 7.39998 28.5998C4.59998 25.9998 2.99998 22.3998 2.99998 18.4998V18.3998C2.99998 17.5998 3.39998 16.8998 4.09998 16.4998C4.19998 16.3998 4.29998 16.3998 4.39998 16.2998C3.49998 14.4998 2.99998 12.3998 2.99998 10.3998C2.99998 7.8998 3.59998 5.5998 4.79998 3.5998C5.19998 2.9998 5.79998 2.5998 6.59998 2.4998C7.29998 2.3998 8.09998 2.7998 8.49998 3.2998C13.3 9.1998 20.2 12.9998 27.6 13.9998V13.8998C27.6 6.3998 33.7 0.299805 41.2 0.299805C44.5 0.299805 47.6 1.4998 50.1 3.6998C51.2 3.2998 52.4 2.4998 53.6 1.7998C54.2 1.3998 54.8 0.999804 55.4 0.699804C56.1 0.299804 57 0.299805 57.8 0.799805C58.6 1.2998 58.9 2.0998 58.8 2.8998C58.7 3.4998 58.5 4.8998 58.1 6.3998H58.5C59.4 6.1998 60.3 6.5998 60.8 7.3998C61.3 8.1998 61.3 9.0998 60.8 9.8998C59.4 11.9998 57.3 13.3998 55.4 14.6998C55.2 14.7998 55 14.9998 54.9 15.0998V15.3998C55 32.1998 42 49.7998 20.4 49.7998ZM11.8 43.9998C14.5 44.7998 17.4 45.1998 20.4 45.1998C39.2 45.1998 50.5 29.8998 50.5 15.0998V13.8998C50.4 13.0998 50.7 12.2998 51.4 11.7998C51.9 11.3998 52.5 10.9998 53 10.5998L53.9 9.9998C53.4 9.7998 53 9.2998 52.8 8.7998C52.6 8.2998 52.6 7.6998 52.8 7.1998C51.9 7.5998 51 7.8998 50.1 8.0998C49.4 8.1998 48.6 7.9998 48.1 7.3998C46.3 5.4998 44 4.4998 41.5 4.4998C36.5 4.4998 32.4 8.5998 32.4 13.5998C32.4 14.1998 32.5 14.8998 32.6 15.6998C32.7 16.3998 32.6 17.0998 32.1 17.5998C31.6 18.0998 31 18.3998 30.3 18.3998C21.8 17.9998 13.8 14.4998 7.79998 8.5998C7.69998 9.0998 7.69998 9.5998 7.69998 10.0998C7.69998 13.1998 9.19998 15.9998 11.8 17.6998C12.6 18.2998 13 19.2998 12.7 20.2998C12.4 21.2998 11.5 21.8998 10.5 21.8998C9.79998 21.8998 8.99998 21.7998 8.29998 21.5998C9.39998 24.3998 11.9 26.5998 15 27.1998C16 27.3998 16.8 28.2998 16.8 29.3998C16.8 30.4998 16.1 31.3998 15.1 31.5998C14.5 31.7998 13.8 31.8998 13.3 31.9998C15 33.9998 17.4 35.1998 20.1 35.1998C21.1 35.1998 21.9 35.7998 22.2 36.6998C22.5 37.5998 22.2 38.5998 21.4 39.1998C18.3 41.5998 15.2 43.1998 11.8 43.9998Z" fill="black"/>
</svg>
