<svg width="70" height="71" viewBox="0 0 70 71" fill="none" xmlns="http://www.w3.org/2000/svg">
<path fill-rule="evenodd" clip-rule="evenodd" d="M59.8015 10.4533C56.5656 7.21588 52.7214 4.65048 48.4901 2.90477C44.2589 1.15905 39.7241 0.26749 35.1468 0.281411C15.9375 0.281411 0.299999 15.8408 0.292187 34.9688C0.283615 41.0596 1.88914 47.044 4.94531 52.3125L0 70.2812L18.4765 65.4578C23.5909 68.2287 29.3161 69.6788 35.1328 69.6766H35.1468C54.3546 69.6766 69.9905 54.1157 69.9999 34.9891C70.0115 30.4275 69.1159 25.9091 67.365 21.6969C65.6142 17.4846 63.0431 13.6626 59.8015 10.4533ZM35.1468 63.8219H35.1343C29.949 63.8234 24.8579 62.4357 20.3906 59.8032L19.3328 59.1782L8.36874 62.0406L11.2953 51.4016L10.6062 50.3079C7.70684 45.7175 6.17069 40.3982 6.17655 34.9688C6.17655 19.0736 19.1781 6.14077 35.1578 6.14077C42.8234 6.12708 50.1805 9.15879 55.611 14.5691C61.0415 19.9793 64.1006 27.3251 64.1155 34.9907C64.1093 50.8875 51.114 63.8219 35.1468 63.8219ZM51.0359 42.2298C50.1656 41.7954 45.8796 39.6985 45.0859 39.4095C44.2921 39.1204 43.7062 38.9751 43.1265 39.8438C42.5468 40.7126 40.8765 42.6563 40.3687 43.2423C39.8609 43.8282 39.3531 43.8923 38.4828 43.4579C37.6124 43.0235 34.8046 42.1094 31.4781 39.1563C28.889 36.8579 27.1421 34.0204 26.6343 33.1532C26.1265 32.286 26.5796 31.8157 27.0156 31.3845C27.4078 30.9954 27.8859 30.372 28.3218 29.8657C28.7578 29.3595 28.9031 28.997 29.1921 28.4188C29.4812 27.8407 29.3375 27.3345 29.1203 26.9017C28.9031 26.4688 27.1609 22.2017 26.4359 20.4657C25.7281 18.7751 25.0109 19.0048 24.4765 18.9782C23.9687 18.9532 23.3828 18.947 22.8062 18.947C22.3655 18.9585 21.9318 19.0607 21.5323 19.2473C21.1328 19.4338 20.7761 19.7008 20.4843 20.0314C19.6859 20.9001 17.4359 23.0001 17.4359 27.2626C17.4359 31.5251 20.5609 35.6501 20.9922 36.2282C21.4234 36.8063 27.1328 45.561 35.8687 49.3157C37.4909 50.0104 39.1483 50.6196 40.8343 51.1407C42.9202 51.8 44.8187 51.7079 46.3187 51.4844C47.9921 51.236 51.4749 49.3876 52.1984 47.3626C52.9218 45.3376 52.9234 43.6032 52.7062 43.2423C52.489 42.8813 51.9077 42.6626 51.0359 42.2298Z" fill="black"/>
</svg>
